<?xml version="1.0" ?><!DOCTYPE svg  PUBLIC '-//W3C//DTD SVG 1.1//EN'  'http://www.w3.org/Graphics/SVG/1.1/DTD/svg11.dtd'><svg enable-background="new 0 0 24 24" height="24px" fill="#c1af97" id="Layer_1" version="1.1" viewBox="0 0 24 24" width="24px" xml:space="preserve" xmlns="http://www.w3.org/2000/svg" xmlns:xlink="http://www.w3.org/1999/xlink"><path d="M18.998,20.001H9V18h9.998V20.001z M18.998,6H9v2.001h9.998V6z M18.998,9.998H9V12h9.998V9.998z M6.998,6H5.004v2.001h1.994  V6z M18.998,14.001H9v1.997h9.998V14.001z M6.998,18H5.004v2.001h1.994V18z M6.998,9.998H5.004V12h1.994V9.998z M6.998,14.001H5.004  v1.997h1.994V14.001z M23.004,0.998C23.004,0.447,22.551,0,21.998,0H2.004C1.447,0,0.998,0.447,0.998,0.998v22.003  c0,0.55,0.449,0.999,1.006,0.999h19.994c0.553,0,1.006-0.449,1.006-0.999V0.998z M21,21.998H3v-18h18V21.998z"/></svg>